<svg xmlns="http://www.w3.org/2000/svg" viewBox="0 0 960 498" width="960" height="498" role="img" aria-labelledby="t d">
<title id="t">The six cassettes, drawn to scale</title>
<desc id="d">Six DNA cassettes shown against a 10,000 bp synthesis ceiling. Round 3 is 110 bp over it.</desc>
<rect x="896.8" y="34.0" width="53.2" height="390.0" rx="0" fill="#b3401f" stroke="none" stroke-width="1" opacity="0.07"/>
<line x1="896.8" y1="34" x2="896.8" y2="436" stroke="#b3401f" stroke-width="1.5" stroke-dasharray="4 3"/>
<text x="889.8" y="14.0" font-family="'Helvetica Neue', Helvetica, Arial, sans-serif" font-size="11" fill="#b3401f" text-anchor="end" font-weight="bold" font-style="normal">10,000 bp</text>
<text x="889.8" y="27.0" font-family="'Helvetica Neue', Helvetica, Arial, sans-serif" font-size="10" fill="#6b6b6b" text-anchor="end" font-weight="normal" font-style="normal">a vendor's single-piece ceiling</text>
<line x1="10.0" y1="34" x2="10.0" y2="40" stroke="#e2ddd9" stroke-width="1"/>
<text x="10.0" y="30.0" font-family="'Helvetica Neue', Helvetica, Arial, sans-serif" font-size="9" fill="#6b6b6b" text-anchor="start" font-weight="normal" font-style="normal">0 bp</text>
<line x1="187.4" y1="34" x2="187.4" y2="40" stroke="#e2ddd9" stroke-width="1"/>
<text x="187.4" y="30.0" font-family="'Helvetica Neue', Helvetica, Arial, sans-serif" font-size="9" fill="#6b6b6b" text-anchor="middle" font-weight="normal" font-style="normal">2,000</text>
<line x1="364.7" y1="34" x2="364.7" y2="40" stroke="#e2ddd9" stroke-width="1"/>
<text x="364.7" y="30.0" font-family="'Helvetica Neue', Helvetica, Arial, sans-serif" font-size="9" fill="#6b6b6b" text-anchor="middle" font-weight="normal" font-style="normal">4,000</text>
<line x1="542.1" y1="34" x2="542.1" y2="40" stroke="#e2ddd9" stroke-width="1"/>
<text x="542.1" y="30.0" font-family="'Helvetica Neue', Helvetica, Arial, sans-serif" font-size="9" fill="#6b6b6b" text-anchor="middle" font-weight="normal" font-style="normal">6,000</text>
<line x1="719.4" y1="34" x2="719.4" y2="40" stroke="#e2ddd9" stroke-width="1"/>
<text x="719.4" y="30.0" font-family="'Helvetica Neue', Helvetica, Arial, sans-serif" font-size="9" fill="#6b6b6b" text-anchor="middle" font-weight="normal" font-style="normal">8,000</text>
<line x1="896.8" y1="34" x2="896.8" y2="40" stroke="#e2ddd9" stroke-width="1"/>
<text x="10.0" y="62.0" font-family="'Helvetica Neue', Helvetica, Arial, sans-serif" font-size="11.5" fill="#1a1a1a" text-anchor="start" font-weight="bold" font-style="normal">Round 1</text>
<text x="64.0" y="62.0" font-family="'Helvetica Neue', Helvetica, Arial, sans-serif" font-size="11.5" fill="#4a4a4a" text-anchor="start" font-weight="normal" font-style="normal">Water: freezing and drying</text>
<text x="227.3" y="62.0" font-family="'Helvetica Neue', Helvetica, Arial, sans-serif" font-size="11" fill="#6b6b6b" text-anchor="start" font-weight="normal" font-style="normal">·  4 genes  ·  6,248 bp</text>
<rect x="10.0" y="69.0" width="44.3" height="27.0" rx="1.5" fill="#e2ddd9" stroke="#fdfcfb" stroke-width="0.7"/>
<rect x="54.3" y="69.0" width="13.3" height="27.0" rx="1.5" fill="#b08d3e" stroke="#fdfcfb" stroke-width="0.7"/>
<rect x="67.6" y="69.0" width="2.2" height="27.0" rx="1.5" fill="#ddd2c6" stroke="#fdfcfb" stroke-width="0.7"/>
<rect x="69.9" y="69.0" width="18.1" height="27.0" rx="1.5" fill="#b3401f" stroke="#fdfcfb" stroke-width="0.7"/>
<rect x="87.9" y="69.0" width="2.2" height="27.0" rx="1.5" fill="#ddd2c6" stroke="#fdfcfb" stroke-width="0.7"/>
<rect x="90.2" y="69.0" width="58.3" height="27.0" rx="1.5" fill="#b3401f" stroke="#fdfcfb" stroke-width="0.7"/>
<rect x="148.4" y="69.0" width="2.2" height="27.0" rx="1.5" fill="#ddd2c6" stroke="#fdfcfb" stroke-width="0.7"/>
<rect x="150.6" y="69.0" width="83.3" height="27.0" rx="1.5" fill="#b3401f" stroke="#fdfcfb" stroke-width="0.7"/>
<text x="192.3" y="85.9" font-family="'Helvetica Neue', Helvetica, Arial, sans-serif" font-size="9.5" fill="#fff" text-anchor="middle" font-weight="bold" font-style="normal">CAS31</text>
<rect x="233.9" y="69.0" width="2.2" height="27.0" rx="1.5" fill="#ddd2c6" stroke="#fdfcfb" stroke-width="0.7"/>
<rect x="236.1" y="69.0" width="126.6" height="27.0" rx="1.5" fill="#b3401f" stroke="#fdfcfb" stroke-width="0.7"/>
<text x="299.4" y="85.9" font-family="'Helvetica Neue', Helvetica, Arial, sans-serif" font-size="9.5" fill="#fff" text-anchor="middle" font-weight="bold" font-style="normal">TPS1</text>
<rect x="362.8" y="69.0" width="63.8" height="27.0" rx="1.5" fill="#c9b89a" stroke="#fdfcfb" stroke-width="0.7"/>
<text x="394.7" y="85.9" font-family="'Helvetica Neue', Helvetica, Arial, sans-serif" font-size="9.5" fill="#1a1a1a" text-anchor="middle" font-weight="normal" font-style="normal">reporter</text>
<rect x="426.6" y="69.0" width="88.7" height="27.0" rx="1.5" fill="#a89f97" stroke="#fdfcfb" stroke-width="0.7"/>
<text x="471.0" y="85.9" font-family="'Helvetica Neue', Helvetica, Arial, sans-serif" font-size="9.5" fill="#fff" text-anchor="middle" font-weight="normal" font-style="normal">marker</text>
<rect x="515.3" y="69.0" width="4.4" height="27.0" rx="1.5" fill="#6b6b6b" stroke="#fdfcfb" stroke-width="0.7"/>
<rect x="519.7" y="69.0" width="44.3" height="27.0" rx="1.5" fill="#e2ddd9" stroke="#fdfcfb" stroke-width="0.7"/>
<text x="10.0" y="126.0" font-family="'Helvetica Neue', Helvetica, Arial, sans-serif" font-size="11.5" fill="#1a1a1a" text-anchor="start" font-weight="bold" font-style="normal">Round 2</text>
<text x="64.0" y="126.0" font-family="'Helvetica Neue', Helvetica, Arial, sans-serif" font-size="11.5" fill="#4a4a4a" text-anchor="start" font-weight="normal" font-style="normal">Damage: radiation, chemicals and repair</text>
<text x="305.9" y="126.0" font-family="'Helvetica Neue', Helvetica, Arial, sans-serif" font-size="11" fill="#6b6b6b" text-anchor="start" font-weight="normal" font-style="normal">·  6 genes  ·  8,608 bp</text>
<rect x="10.0" y="133.0" width="44.3" height="27.0" rx="1.5" fill="#e2ddd9" stroke="#fdfcfb" stroke-width="0.7"/>
<rect x="54.3" y="133.0" width="13.3" height="27.0" rx="1.5" fill="#b08d3e" stroke="#fdfcfb" stroke-width="0.7"/>
<rect x="67.6" y="133.0" width="2.2" height="27.0" rx="1.5" fill="#ddd2c6" stroke="#fdfcfb" stroke-width="0.7"/>
<rect x="69.9" y="133.0" width="75.0" height="27.0" rx="1.5" fill="#b3401f" stroke="#fdfcfb" stroke-width="0.7"/>
<text x="107.4" y="149.9" font-family="'Helvetica Neue', Helvetica, Arial, sans-serif" font-size="9.5" fill="#fff" text-anchor="middle" font-weight="bold" font-style="normal">irrE</text>
<rect x="144.9" y="133.0" width="2.2" height="27.0" rx="1.5" fill="#ddd2c6" stroke="#fdfcfb" stroke-width="0.7"/>
<rect x="147.1" y="133.0" width="47.1" height="27.0" rx="1.5" fill="#b3401f" stroke="#fdfcfb" stroke-width="0.7"/>
<text x="170.6" y="149.9" font-family="'Helvetica Neue', Helvetica, Arial, sans-serif" font-size="9.5" fill="#fff" text-anchor="middle" font-weight="bold" font-style="normal">dps</text>
<rect x="194.2" y="133.0" width="2.2" height="27.0" rx="1.5" fill="#ddd2c6" stroke="#fdfcfb" stroke-width="0.7"/>
<rect x="196.4" y="133.0" width="162.8" height="27.0" rx="1.5" fill="#b3401f" stroke="#fdfcfb" stroke-width="0.7"/>
<text x="277.8" y="149.9" font-family="'Helvetica Neue', Helvetica, Arial, sans-serif" font-size="9.5" fill="#fff" text-anchor="middle" font-weight="bold" font-style="normal">dnaK</text>
<rect x="359.2" y="133.0" width="2.2" height="27.0" rx="1.5" fill="#ddd2c6" stroke="#fdfcfb" stroke-width="0.7"/>
<rect x="361.4" y="133.0" width="36.7" height="27.0" rx="1.5" fill="#b3401f" stroke="#fdfcfb" stroke-width="0.7"/>
<text x="379.8" y="149.9" font-family="'Helvetica Neue', Helvetica, Arial, sans-serif" font-size="9.5" fill="#fff" text-anchor="middle" font-weight="bold" font-style="normal">ibpA</text>
<rect x="398.1" y="133.0" width="2.2" height="27.0" rx="1.5" fill="#ddd2c6" stroke="#fdfcfb" stroke-width="0.7"/>
<rect x="400.4" y="133.0" width="40.7" height="27.0" rx="1.5" fill="#b3401f" stroke="#fdfcfb" stroke-width="0.7"/>
<text x="420.7" y="149.9" font-family="'Helvetica Neue', Helvetica, Arial, sans-serif" font-size="9.5" fill="#fff" text-anchor="middle" font-weight="bold" font-style="normal">SODCC</text>
<rect x="441.1" y="133.0" width="2.2" height="27.0" rx="1.5" fill="#ddd2c6" stroke="#fdfcfb" stroke-width="0.7"/>
<rect x="443.3" y="133.0" width="128.8" height="27.0" rx="1.5" fill="#b3401f" stroke="#fdfcfb" stroke-width="0.7"/>
<text x="507.7" y="149.9" font-family="'Helvetica Neue', Helvetica, Arial, sans-serif" font-size="9.5" fill="#fff" text-anchor="middle" font-weight="bold" font-style="normal">katA</text>
<rect x="572.0" y="133.0" width="63.8" height="27.0" rx="1.5" fill="#c9b89a" stroke="#fdfcfb" stroke-width="0.7"/>
<text x="604.0" y="149.9" font-family="'Helvetica Neue', Helvetica, Arial, sans-serif" font-size="9.5" fill="#1a1a1a" text-anchor="middle" font-weight="normal" font-style="normal">reporter</text>
<rect x="635.9" y="133.0" width="88.7" height="27.0" rx="1.5" fill="#a89f97" stroke="#fdfcfb" stroke-width="0.7"/>
<text x="680.2" y="149.9" font-family="'Helvetica Neue', Helvetica, Arial, sans-serif" font-size="9.5" fill="#fff" text-anchor="middle" font-weight="normal" font-style="normal">marker</text>
<rect x="724.6" y="133.0" width="4.4" height="27.0" rx="1.5" fill="#6b6b6b" stroke="#fdfcfb" stroke-width="0.7"/>
<rect x="729.0" y="133.0" width="44.3" height="27.0" rx="1.5" fill="#e2ddd9" stroke="#fdfcfb" stroke-width="0.7"/>
<text x="10.0" y="190.0" font-family="'Helvetica Neue', Helvetica, Arial, sans-serif" font-size="11.5" fill="#1a1a1a" text-anchor="start" font-weight="bold" font-style="normal">Round 3</text>
<text x="64.0" y="190.0" font-family="'Helvetica Neue', Helvetica, Arial, sans-serif" font-size="11.5" fill="#4a4a4a" text-anchor="start" font-weight="normal" font-style="normal">The Mars poison, and breathing without air</text>
<text x="324.1" y="190.0" font-family="'Helvetica Neue', Helvetica, Arial, sans-serif" font-size="11" fill="#b3401f" text-anchor="start" font-weight="bold" font-style="normal">·  5 genes  ·  10,110 bp  ·  over the limit</text>
<rect x="10.0" y="197.0" width="44.3" height="27.0" rx="1.5" fill="#e2ddd9" stroke="#fdfcfb" stroke-width="0.7"/>
<rect x="54.3" y="197.0" width="13.3" height="27.0" rx="1.5" fill="#b08d3e" stroke="#fdfcfb" stroke-width="0.7"/>
<rect x="67.6" y="197.0" width="2.2" height="27.0" rx="1.5" fill="#ddd2c6" stroke="#fdfcfb" stroke-width="0.7"/>
<rect x="69.9" y="197.0" width="246.9" height="27.0" rx="1.5" fill="#b3401f" stroke="#fdfcfb" stroke-width="0.7"/>
<text x="193.3" y="213.9" font-family="'Helvetica Neue', Helvetica, Arial, sans-serif" font-size="9.5" fill="#fff" text-anchor="middle" font-weight="bold" font-style="normal">pcrA</text>
<rect x="316.7" y="197.0" width="2.2" height="27.0" rx="1.5" fill="#ddd2c6" stroke="#fdfcfb" stroke-width="0.7"/>
<rect x="319.0" y="197.0" width="88.9" height="27.0" rx="1.5" fill="#b3401f" stroke="#fdfcfb" stroke-width="0.7"/>
<text x="363.4" y="213.9" font-family="'Helvetica Neue', Helvetica, Arial, sans-serif" font-size="9.5" fill="#fff" text-anchor="middle" font-weight="bold" font-style="normal">pcrB</text>
<rect x="407.8" y="197.0" width="2.2" height="27.0" rx="1.5" fill="#ddd2c6" stroke="#fdfcfb" stroke-width="0.7"/>
<rect x="410.0" y="197.0" width="63.1" height="27.0" rx="1.5" fill="#b3401f" stroke="#fdfcfb" stroke-width="0.7"/>
<text x="441.6" y="213.9" font-family="'Helvetica Neue', Helvetica, Arial, sans-serif" font-size="9.5" fill="#fff" text-anchor="middle" font-weight="bold" font-style="normal">pcrC</text>
<rect x="473.1" y="197.0" width="2.2" height="27.0" rx="1.5" fill="#ddd2c6" stroke="#fdfcfb" stroke-width="0.7"/>
<rect x="475.3" y="197.0" width="75.3" height="27.0" rx="1.5" fill="#b3401f" stroke="#fdfcfb" stroke-width="0.7"/>
<text x="512.9" y="213.9" font-family="'Helvetica Neue', Helvetica, Arial, sans-serif" font-size="9.5" fill="#fff" text-anchor="middle" font-weight="bold" font-style="normal">Daro_2580</text>
<rect x="550.6" y="197.0" width="2.2" height="27.0" rx="1.5" fill="#ddd2c6" stroke="#fdfcfb" stroke-width="0.7"/>
<rect x="552.8" y="197.0" width="152.4" height="27.0" rx="1.5" fill="#b3401f" stroke="#fdfcfb" stroke-width="0.7"/>
<text x="629.0" y="213.9" font-family="'Helvetica Neue', Helvetica, Arial, sans-serif" font-size="9.5" fill="#fff" text-anchor="middle" font-weight="bold" font-style="normal">fccA</text>
<rect x="705.2" y="197.0" width="63.8" height="27.0" rx="1.5" fill="#c9b89a" stroke="#fdfcfb" stroke-width="0.7"/>
<text x="737.2" y="213.9" font-family="'Helvetica Neue', Helvetica, Arial, sans-serif" font-size="9.5" fill="#1a1a1a" text-anchor="middle" font-weight="normal" font-style="normal">reporter</text>
<rect x="769.1" y="197.0" width="88.7" height="27.0" rx="1.5" fill="#a89f97" stroke="#fdfcfb" stroke-width="0.7"/>
<text x="813.4" y="213.9" font-family="'Helvetica Neue', Helvetica, Arial, sans-serif" font-size="9.5" fill="#fff" text-anchor="middle" font-weight="normal" font-style="normal">marker</text>
<rect x="857.8" y="197.0" width="4.4" height="27.0" rx="1.5" fill="#6b6b6b" stroke="#fdfcfb" stroke-width="0.7"/>
<rect x="862.2" y="197.0" width="44.3" height="27.0" rx="1.5" fill="#e2ddd9" stroke="#fdfcfb" stroke-width="0.7"/>
<line x1="896.8" y1="229.0" x2="906.5" y2="229.0" stroke="#b3401f" stroke-width="1.5"/>
<text x="902.5" y="241.0" font-family="'Helvetica Neue', Helvetica, Arial, sans-serif" font-size="9.5" fill="#b3401f" text-anchor="end" font-weight="bold" font-style="normal">110 bp over</text>
<text x="10.0" y="254.0" font-family="'Helvetica Neue', Helvetica, Arial, sans-serif" font-size="11.5" fill="#1a1a1a" text-anchor="start" font-weight="bold" font-style="normal">Round 4</text>
<text x="64.0" y="254.0" font-family="'Helvetica Neue', Helvetica, Arial, sans-serif" font-size="11.5" fill="#4a4a4a" text-anchor="start" font-weight="normal" font-style="normal">Making food, and building the home</text>
<text x="275.7" y="254.0" font-family="'Helvetica Neue', Helvetica, Arial, sans-serif" font-size="11" fill="#6b6b6b" text-anchor="start" font-weight="normal" font-style="normal">·  3 genes  ·  6,055 bp</text>
<rect x="10.0" y="261.0" width="44.3" height="27.0" rx="1.5" fill="#e2ddd9" stroke="#fdfcfb" stroke-width="0.7"/>
<rect x="54.3" y="261.0" width="13.3" height="27.0" rx="1.5" fill="#b08d3e" stroke="#fdfcfb" stroke-width="0.7"/>
<rect x="67.6" y="261.0" width="2.2" height="27.0" rx="1.5" fill="#ddd2c6" stroke="#fdfcfb" stroke-width="0.7"/>
<rect x="69.9" y="261.0" width="124.2" height="27.0" rx="1.5" fill="#b3401f" stroke="#fdfcfb" stroke-width="0.7"/>
<text x="132.0" y="277.9" font-family="'Helvetica Neue', Helvetica, Arial, sans-serif" font-size="9.5" fill="#fff" text-anchor="middle" font-weight="bold" font-style="normal">cbbM</text>
<rect x="194.1" y="261.0" width="2.2" height="27.0" rx="1.5" fill="#ddd2c6" stroke="#fdfcfb" stroke-width="0.7"/>
<rect x="196.3" y="261.0" width="77.4" height="27.0" rx="1.5" fill="#b3401f" stroke="#fdfcfb" stroke-width="0.7"/>
<text x="235.0" y="277.9" font-family="'Helvetica Neue', Helvetica, Arial, sans-serif" font-size="9.5" fill="#fff" text-anchor="middle" font-weight="bold" font-style="normal">prkA</text>
<rect x="273.7" y="261.0" width="2.2" height="27.0" rx="1.5" fill="#ddd2c6" stroke="#fdfcfb" stroke-width="0.7"/>
<rect x="275.9" y="261.0" width="69.7" height="27.0" rx="1.5" fill="#b3401f" stroke="#fdfcfb" stroke-width="0.7"/>
<text x="310.8" y="277.9" font-family="'Helvetica Neue', Helvetica, Arial, sans-serif" font-size="9.5" fill="#fff" text-anchor="middle" font-weight="bold" font-style="normal">tasA</text>
<rect x="345.7" y="261.0" width="63.8" height="27.0" rx="1.5" fill="#c9b89a" stroke="#fdfcfb" stroke-width="0.7"/>
<text x="377.6" y="277.9" font-family="'Helvetica Neue', Helvetica, Arial, sans-serif" font-size="9.5" fill="#1a1a1a" text-anchor="middle" font-weight="normal" font-style="normal">reporter</text>
<rect x="409.5" y="261.0" width="88.7" height="27.0" rx="1.5" fill="#a89f97" stroke="#fdfcfb" stroke-width="0.7"/>
<text x="453.8" y="277.9" font-family="'Helvetica Neue', Helvetica, Arial, sans-serif" font-size="9.5" fill="#fff" text-anchor="middle" font-weight="normal" font-style="normal">marker</text>
<rect x="498.2" y="261.0" width="4.4" height="27.0" rx="1.5" fill="#6b6b6b" stroke="#fdfcfb" stroke-width="0.7"/>
<rect x="502.6" y="261.0" width="44.3" height="27.0" rx="1.5" fill="#e2ddd9" stroke="#fdfcfb" stroke-width="0.7"/>
<text x="10.0" y="318.0" font-family="'Helvetica Neue', Helvetica, Arial, sans-serif" font-size="11.5" fill="#1a1a1a" text-anchor="start" font-weight="bold" font-style="normal">Round 5</text>
<text x="64.0" y="318.0" font-family="'Helvetica Neue', Helvetica, Arial, sans-serif" font-size="11.5" fill="#4a4a4a" text-anchor="start" font-weight="normal" font-style="normal">Breaking down what is dead</text>
<text x="227.3" y="318.0" font-family="'Helvetica Neue', Helvetica, Arial, sans-serif" font-size="11" fill="#6b6b6b" text-anchor="start" font-weight="normal" font-style="normal">·  4 genes  ·  8,153 bp</text>
<rect x="10.0" y="325.0" width="44.3" height="27.0" rx="1.5" fill="#e2ddd9" stroke="#fdfcfb" stroke-width="0.7"/>
<rect x="54.3" y="325.0" width="13.3" height="27.0" rx="1.5" fill="#b08d3e" stroke="#fdfcfb" stroke-width="0.7"/>
<rect x="67.6" y="325.0" width="2.2" height="27.0" rx="1.5" fill="#ddd2c6" stroke="#fdfcfb" stroke-width="0.7"/>
<rect x="69.9" y="325.0" width="83.0" height="27.0" rx="1.5" fill="#b3401f" stroke="#fdfcfb" stroke-width="0.7"/>
<text x="111.4" y="341.9" font-family="'Helvetica Neue', Helvetica, Arial, sans-serif" font-size="9.5" fill="#fff" text-anchor="middle" font-weight="bold" font-style="normal">Hevamine-A</text>
<rect x="152.9" y="325.0" width="2.2" height="27.0" rx="1.5" fill="#ddd2c6" stroke="#fdfcfb" stroke-width="0.7"/>
<rect x="155.1" y="325.0" width="198.7" height="27.0" rx="1.5" fill="#b3401f" stroke="#fdfcfb" stroke-width="0.7"/>
<text x="254.4" y="341.9" font-family="'Helvetica Neue', Helvetica, Arial, sans-serif" font-size="9.5" fill="#fff" text-anchor="middle" font-weight="bold" font-style="normal">cel1</text>
<rect x="353.8" y="325.0" width="2.2" height="27.0" rx="1.5" fill="#ddd2c6" stroke="#fdfcfb" stroke-width="0.7"/>
<rect x="356.0" y="325.0" width="56.7" height="27.0" rx="1.5" fill="#b3401f" stroke="#fdfcfb" stroke-width="0.7"/>
<text x="384.4" y="341.9" font-family="'Helvetica Neue', Helvetica, Arial, sans-serif" font-size="9.5" fill="#fff" text-anchor="middle" font-weight="bold" font-style="normal">estA</text>
<rect x="412.7" y="325.0" width="2.2" height="27.0" rx="1.5" fill="#ddd2c6" stroke="#fdfcfb" stroke-width="0.7"/>
<rect x="414.9" y="325.0" width="116.8" height="27.0" rx="1.5" fill="#b3401f" stroke="#fdfcfb" stroke-width="0.7"/>
<text x="473.3" y="341.9" font-family="'Helvetica Neue', Helvetica, Arial, sans-serif" font-size="9.5" fill="#fff" text-anchor="middle" font-weight="bold" font-style="normal">AMY1.1</text>
<rect x="531.7" y="325.0" width="63.8" height="27.0" rx="1.5" fill="#c9b89a" stroke="#fdfcfb" stroke-width="0.7"/>
<text x="563.6" y="341.9" font-family="'Helvetica Neue', Helvetica, Arial, sans-serif" font-size="9.5" fill="#1a1a1a" text-anchor="middle" font-weight="normal" font-style="normal">reporter</text>
<rect x="595.5" y="325.0" width="88.7" height="27.0" rx="1.5" fill="#a89f97" stroke="#fdfcfb" stroke-width="0.7"/>
<text x="639.9" y="341.9" font-family="'Helvetica Neue', Helvetica, Arial, sans-serif" font-size="9.5" fill="#fff" text-anchor="middle" font-weight="normal" font-style="normal">marker</text>
<rect x="684.2" y="325.0" width="4.4" height="27.0" rx="1.5" fill="#6b6b6b" stroke="#fdfcfb" stroke-width="0.7"/>
<rect x="688.7" y="325.0" width="44.3" height="27.0" rx="1.5" fill="#e2ddd9" stroke="#fdfcfb" stroke-width="0.7"/>
<text x="10.0" y="382.0" font-family="'Helvetica Neue', Helvetica, Arial, sans-serif" font-size="11.5" fill="#1a1a1a" text-anchor="start" font-weight="bold" font-style="normal">Round 6</text>
<text x="64.0" y="382.0" font-family="'Helvetica Neue', Helvetica, Arial, sans-serif" font-size="11.5" fill="#4a4a4a" text-anchor="start" font-weight="normal" font-style="normal">Unlocking the rock</text>
<text x="178.9" y="382.0" font-family="'Helvetica Neue', Helvetica, Arial, sans-serif" font-size="11" fill="#6b6b6b" text-anchor="start" font-weight="normal" font-style="normal">·  2 genes  ·  6,492 bp</text>
<rect x="10.0" y="389.0" width="44.3" height="27.0" rx="1.5" fill="#e2ddd9" stroke="#fdfcfb" stroke-width="0.7"/>
<rect x="54.3" y="389.0" width="13.3" height="27.0" rx="1.5" fill="#b08d3e" stroke="#fdfcfb" stroke-width="0.7"/>
<rect x="67.6" y="389.0" width="2.2" height="27.0" rx="1.5" fill="#ddd2c6" stroke="#fdfcfb" stroke-width="0.7"/>
<rect x="69.9" y="389.0" width="189.4" height="27.0" rx="1.5" fill="#b3401f" stroke="#fdfcfb" stroke-width="0.7"/>
<text x="164.6" y="405.9" font-family="'Helvetica Neue', Helvetica, Arial, sans-serif" font-size="9.5" fill="#fff" text-anchor="middle" font-weight="bold" font-style="normal">FRE3</text>
<rect x="259.3" y="389.0" width="2.2" height="27.0" rx="1.5" fill="#ddd2c6" stroke="#fdfcfb" stroke-width="0.7"/>
<rect x="261.5" y="389.0" width="122.9" height="27.0" rx="1.5" fill="#b3401f" stroke="#fdfcfb" stroke-width="0.7"/>
<text x="322.9" y="405.9" font-family="'Helvetica Neue', Helvetica, Arial, sans-serif" font-size="9.5" fill="#fff" text-anchor="middle" font-weight="bold" font-style="normal">phyA</text>
<rect x="384.4" y="389.0" width="63.8" height="27.0" rx="1.5" fill="#c9b89a" stroke="#fdfcfb" stroke-width="0.7"/>
<text x="416.3" y="405.9" font-family="'Helvetica Neue', Helvetica, Arial, sans-serif" font-size="9.5" fill="#1a1a1a" text-anchor="middle" font-weight="normal" font-style="normal">reporter</text>
<rect x="448.3" y="389.0" width="88.7" height="27.0" rx="1.5" fill="#a89f97" stroke="#fdfcfb" stroke-width="0.7"/>
<text x="492.6" y="405.9" font-family="'Helvetica Neue', Helvetica, Arial, sans-serif" font-size="9.5" fill="#fff" text-anchor="middle" font-weight="normal" font-style="normal">marker</text>
<rect x="536.9" y="389.0" width="4.4" height="27.0" rx="1.5" fill="#6b6b6b" stroke="#fdfcfb" stroke-width="0.7"/>
<rect x="541.4" y="389.0" width="44.3" height="27.0" rx="1.5" fill="#e2ddd9" stroke="#fdfcfb" stroke-width="0.7"/>
<rect x="10.0" y="450.0" width="13.0" height="11.0" rx="1.5" fill="#e2ddd9" stroke="none" stroke-width="1"/>
<text x="28.0" y="459.5" font-family="'Helvetica Neue', Helvetica, Arial, sans-serif" font-size="9.5" fill="#4a4a4a" text-anchor="start" font-weight="normal" font-style="normal">homology arm, 500 each</text>
<rect x="151.7" y="450.0" width="13.0" height="11.0" rx="1.5" fill="#b08d3e" stroke="none" stroke-width="1"/>
<text x="169.7" y="459.5" font-family="'Helvetica Neue', Helvetica, Arial, sans-serif" font-size="9.5" fill="#4a4a4a" text-anchor="start" font-weight="normal" font-style="normal">nifH promoter, 150</text>
<rect x="272.0" y="450.0" width="13.0" height="11.0" rx="1.5" fill="#ddd2c6" stroke="none" stroke-width="1"/>
<text x="290.0" y="459.5" font-family="'Helvetica Neue', Helvetica, Arial, sans-serif" font-size="9.5" fill="#4a4a4a" text-anchor="start" font-weight="normal" font-style="normal">RBS, 25 a gene</text>
<rect x="370.9" y="450.0" width="13.0" height="11.0" rx="1.5" fill="#b3401f" stroke="none" stroke-width="1"/>
<text x="388.9" y="459.5" font-family="'Helvetica Neue', Helvetica, Arial, sans-serif" font-size="9.5" fill="#4a4a4a" text-anchor="start" font-weight="normal" font-style="normal">gene</text>
<rect x="416.3" y="450.0" width="13.0" height="11.0" rx="1.5" fill="#c9b89a" stroke="none" stroke-width="1"/>
<text x="434.3" y="459.5" font-family="'Helvetica Neue', Helvetica, Arial, sans-serif" font-size="9.5" fill="#4a4a4a" text-anchor="start" font-weight="normal" font-style="normal">reporter, 720</text>
<rect x="509.8" y="450.0" width="13.0" height="11.0" rx="1.5" fill="#a89f97" stroke="none" stroke-width="1"/>
<text x="527.8" y="459.5" font-family="'Helvetica Neue', Helvetica, Arial, sans-serif" font-size="9.5" fill="#4a4a4a" text-anchor="start" font-weight="normal" font-style="normal">marker, 1,000</text>
<rect x="603.4" y="450.0" width="13.0" height="11.0" rx="1.5" fill="#6b6b6b" stroke="none" stroke-width="1"/>
<text x="621.4" y="459.5" font-family="'Helvetica Neue', Helvetica, Arial, sans-serif" font-size="9.5" fill="#4a4a4a" text-anchor="start" font-weight="normal" font-style="normal">terminator, 50</text>
<text x="10.0" y="482.0" font-family="'Helvetica Neue', Helvetica, Arial, sans-serif" font-size="9.5" fill="#6b6b6b" text-anchor="start" font-weight="normal" font-style="italic">Every length is the real one: gene lengths from genes_to_order.csv, the rest from rounds.py.</text>
</svg>
